<svg width="62" height="91" viewBox="0 0 62 91" fill="none" xmlns="http://www.w3.org/2000/svg">
<path d="M5.17081 76H1.30362V65.0909H5.20277C6.30007 65.0909 7.24467 65.3093 8.03658 65.7461C8.82848 66.1793 9.4375 66.8026 9.86364 67.6158C10.2933 68.429 10.5082 69.402 10.5082 70.5348C10.5082 71.6712 10.2933 72.6477 9.86364 73.4645C9.4375 74.2812 8.82493 74.908 8.02592 75.3448C7.23047 75.7816 6.27876 76 5.17081 76ZM3.61009 74.0238H5.07493C5.75675 74.0238 6.33026 73.9031 6.79545 73.6616C7.2642 73.4165 7.61577 73.0384 7.85014 72.527C8.08807 72.0121 8.20703 71.348 8.20703 70.5348C8.20703 69.7287 8.08807 69.07 7.85014 68.5586C7.61577 68.0472 7.26598 67.6708 6.80078 67.4293C6.33558 67.1879 5.76207 67.0671 5.08026 67.0671H3.61009V74.0238ZM12.2167 76V65.0909H19.5676V66.9925H14.5232V69.592H19.1894V71.4936H14.5232V74.0984H19.5889V76H12.2167ZM21.4013 76V65.0909H25.7053C26.5327 65.0909 27.2376 65.2489 27.82 65.565C28.4023 65.8775 28.8462 66.3125 29.1516 66.87C29.4606 67.424 29.6151 68.0632 29.6151 68.7876C29.6151 69.5121 29.4588 70.1513 29.1463 70.7053C28.8338 71.2592 28.381 71.6907 27.788 71.9996C27.1985 72.3086 26.4847 72.4631 25.6467 72.4631H22.9034V70.6147H25.2738C25.7177 70.6147 26.0835 70.5384 26.3711 70.3857C26.6623 70.2294 26.8789 70.0146 27.021 69.7411C27.1665 69.4641 27.2393 69.1463 27.2393 68.7876C27.2393 68.4254 27.1665 68.1094 27.021 67.8395C26.8789 67.5661 26.6623 67.3548 26.3711 67.2056C26.0799 67.0529 25.7106 66.9766 25.2631 66.9766H23.7077V76H21.4013ZM31.1132 76V65.0909H38.464V66.9925H33.4197V69.592H38.0858V71.4936H33.4197V74.0984H38.4854V76H31.1132ZM47.5314 68.6172C47.4569 68.358 47.3521 68.1289 47.2172 67.93C47.0822 67.7276 46.9171 67.5572 46.7218 67.4187C46.53 67.2766 46.3098 67.1683 46.0613 67.0938C45.8162 67.0192 45.5446 66.9819 45.2463 66.9819C44.6887 66.9819 44.1987 67.1204 43.7761 67.3974C43.3571 67.6744 43.0304 68.0774 42.796 68.6065C42.5616 69.1321 42.4444 69.7749 42.4444 70.5348C42.4444 71.2947 42.5598 71.9411 42.7907 72.4737C43.0215 73.0064 43.3482 73.413 43.7708 73.6935C44.1934 73.9705 44.6923 74.109 45.2676 74.109C45.7896 74.109 46.2353 74.0167 46.6046 73.832C46.9775 73.6438 47.2615 73.3793 47.4569 73.0384C47.6557 72.6974 47.7551 72.2944 47.7551 71.8292L48.2239 71.8984H45.4114V70.1619H49.9764V71.5362C49.9764 72.495 49.774 73.3189 49.3691 74.0078C48.9643 74.6932 48.4068 75.2223 47.6966 75.5952C46.9863 75.9645 46.1731 76.1491 45.2569 76.1491C44.2342 76.1491 43.3358 75.9237 42.5616 75.4727C41.7875 75.0181 41.1838 74.3736 40.7505 73.5391C40.3208 72.701 40.106 71.7067 40.106 70.5561C40.106 69.6719 40.2338 68.8835 40.4895 68.1911C40.7488 67.495 41.111 66.9055 41.5762 66.4226C42.0414 65.9396 42.5829 65.5721 43.2008 65.32C43.8187 65.0678 44.4881 64.9418 45.209 64.9418C45.8269 64.9418 46.4022 65.0323 46.9348 65.2134C47.4675 65.391 47.9398 65.6431 48.3517 65.9698C48.7672 66.2965 49.1064 66.6854 49.3691 67.1364C49.6319 67.5838 49.8006 68.0774 49.8752 68.6172H47.5314ZM53.2523 76H50.7807L54.5467 65.0909H57.519L61.2797 76H58.8081L56.0755 67.5838H55.9902L53.2523 76ZM53.0978 71.712H58.9359V73.5124H53.0978V71.712Z" fill="#AAAAAA"/>
<path d="M18.0206 88V80.7273H18.6847V87.4034H22.1506V88H18.0206ZM29.3248 84.3636C29.3248 85.1212 29.1898 85.7805 28.9199 86.3416C28.65 86.9003 28.2783 87.3336 27.8049 87.6413C27.3337 87.9467 26.7916 88.0994 26.1784 88.0994C25.5653 88.0994 25.022 87.9467 24.5485 87.6413C24.0774 87.3336 23.7069 86.9003 23.437 86.3416C23.1694 85.7805 23.0357 85.1212 23.0357 84.3636C23.0357 83.6061 23.1694 82.9479 23.437 82.3892C23.7069 81.8281 24.0785 81.3949 24.552 81.0895C25.0255 80.7817 25.5676 80.6278 26.1784 80.6278C26.7916 80.6278 27.3337 80.7817 27.8049 81.0895C28.2783 81.3949 28.65 81.8281 28.9199 82.3892C29.1898 82.9479 29.3248 83.6061 29.3248 84.3636ZM28.6784 84.3636C28.6784 83.7126 28.5695 83.1551 28.3517 82.6911C28.1339 82.2247 27.8368 81.8684 27.4604 81.6222C27.084 81.3759 26.6567 81.2528 26.1784 81.2528C25.7026 81.2528 25.2765 81.3759 24.9 81.6222C24.5236 81.8684 24.2253 82.2235 24.0051 82.6875C23.7873 83.1515 23.6784 83.7102 23.6784 84.3636C23.6784 85.0147 23.7873 85.5722 24.0051 86.0362C24.223 86.5002 24.5201 86.8565 24.8965 87.1051C25.2729 87.3513 25.7002 87.4744 26.1784 87.4744C26.6567 87.4744 27.084 87.3513 27.4604 87.1051C27.8392 86.8589 28.1375 86.5038 28.3553 86.0398C28.5731 85.5734 28.6808 85.0147 28.6784 84.3636ZM35.9627 83C35.8964 82.7585 35.7994 82.5324 35.6715 82.3217C35.5437 82.1087 35.3851 81.9228 35.1957 81.7642C35.0086 81.6032 34.792 81.4777 34.5458 81.3878C34.302 81.2978 34.0297 81.2528 33.729 81.2528C33.2556 81.2528 32.8318 81.3759 32.4577 81.6222C32.0837 81.8684 31.7878 82.2235 31.57 82.6875C31.3545 83.1515 31.2468 83.7102 31.2468 84.3636C31.2468 85.0147 31.3557 85.5722 31.5735 86.0362C31.7913 86.5002 32.0896 86.8565 32.4684 87.1051C32.8496 87.3513 33.2852 87.4744 33.7752 87.4744C34.2227 87.4744 34.618 87.375 34.9613 87.1761C35.3046 86.9773 35.5721 86.6932 35.7638 86.3239C35.958 85.9545 36.0527 85.5154 36.0479 85.0064L36.261 85.0739H33.9315V84.4773H36.6942V85.0739C36.6942 85.6941 36.5688 86.2304 36.3178 86.6825C36.0669 87.1347 35.7224 87.4839 35.2844 87.7301C34.8465 87.9763 34.3434 88.0994 33.7752 88.0994C33.1407 88.0994 32.5856 87.9467 32.1097 87.6413C31.6339 87.3336 31.2634 86.9003 30.9982 86.3416C30.7354 85.7805 30.604 85.1212 30.604 84.3636C30.604 83.7931 30.6798 83.2782 30.8313 82.8189C30.9828 82.3596 31.1971 81.9666 31.4741 81.6399C31.7534 81.3132 32.0837 81.0634 32.4648 80.8906C32.846 80.7154 33.2674 80.6278 33.729 80.6278C34.1268 80.6278 34.4902 80.6906 34.8192 80.8161C35.1507 80.9415 35.4419 81.1143 35.6928 81.3345C35.9461 81.5523 36.1533 81.8045 36.3143 82.0909C36.4776 82.375 36.5877 82.678 36.6445 83H35.9627ZM44.3052 84.3636C44.3052 85.1212 44.1703 85.7805 43.9004 86.3416C43.6305 86.9003 43.2588 87.3336 42.7853 87.6413C42.3142 87.9467 41.7721 88.0994 41.1589 88.0994C40.5458 88.0994 40.0024 87.9467 39.5289 87.6413C39.0578 87.3336 38.6873 86.9003 38.4174 86.3416C38.1499 85.7805 38.0162 85.1212 38.0162 84.3636C38.0162 83.6061 38.1499 82.9479 38.4174 82.3892C38.6873 81.8281 39.059 81.3949 39.5325 81.0895C40.006 80.7817 40.5481 80.6278 41.1589 80.6278C41.7721 80.6278 42.3142 80.7817 42.7853 81.0895C43.2588 81.3949 43.6305 81.8281 43.9004 82.3892C44.1703 82.9479 44.3052 83.6061 44.3052 84.3636ZM43.6589 84.3636C43.6589 83.7126 43.55 83.1551 43.3322 82.6911C43.1144 82.2247 42.8173 81.8684 42.4409 81.6222C42.0645 81.3759 41.6371 81.2528 41.1589 81.2528C40.6831 81.2528 40.2569 81.3759 39.8805 81.6222C39.5041 81.8684 39.2058 82.2235 38.9856 82.6875C38.7678 83.1515 38.6589 83.7102 38.6589 84.3636C38.6589 85.0147 38.7678 85.5722 38.9856 86.0362C39.2034 86.5002 39.5005 86.8565 39.877 87.1051C40.2534 87.3513 40.6807 87.4744 41.1589 87.4744C41.6371 87.4744 42.0645 87.3513 42.4409 87.1051C42.8197 86.8589 43.118 86.5038 43.3358 86.0398C43.5536 85.5734 43.6613 85.0147 43.6589 84.3636Z" fill="#DEA83E"/>
<path d="M58.1678 25.4727L44.5835 11.8884L40.0554 7.36031L35.5273 2.83221L33.8941 1.19903C32.2954 -0.399676 29.7046 -0.399676 28.1059 1.19903L26.4727 2.83221L3.83221 25.4727L2.19903 27.1059C0.600324 28.7046 0.600324 31.2954 2.19903 32.8941L3.83221 34.5273L17.4165 48.1116L21.9446 52.6397L26.4727 57.1678L28.1059 58.801C29.7046 60.3997 32.2954 60.3997 33.8941 58.801L35.5273 57.1678L58.1662 34.5289L59.7994 32.8957C61.3981 31.297 61.3981 28.7061 59.7994 27.1074L58.1662 25.4743L58.1678 25.4727ZM8.36031 30.0008L31.0008 7.36031L35.5289 11.8884L17.4165 30.0008L21.9446 34.5289L26.4727 30.0008L31.0008 34.5289L21.9446 43.5851L8.36031 30.0008ZM30.9992 52.6397L26.4711 48.1116L44.5835 29.9992L40.0554 25.4711L35.5273 29.9992L30.9992 25.4711L40.0554 16.4149L53.6397 29.9992L31.0008 52.6381L30.9992 52.6397Z" fill="#DEA83E"/>
</svg>
