<svg width="28" height="26" viewBox="0 0 28 26" fill="none" xmlns="http://www.w3.org/2000/svg">
<path d="M7.2744 5.19686C7.62298 4.91989 7.92404 4.68834 8.2166 4.44681C9.43386 3.44026 10.6421 2.42223 11.8679 1.42566C12.343 1.03941 12.8491 0.690081 13.3527 0.340259C13.8158 0.0183815 14.3034 0.0363468 14.748 0.363214C15.3306 0.791385 15.8967 1.24251 16.4534 1.70362C18.5533 3.44325 20.6528 5.18438 22.7407 6.93799C24.3 8.24795 25.8424 9.57838 27.3922 10.8998C27.4047 10.9108 27.4157 10.9238 27.4287 10.9338C28.3109 11.6274 28.0438 12.4793 27.4842 13.1225C27.1686 13.4848 26.8136 13.8262 26.2735 13.7303C26.0194 13.6854 25.7418 13.6101 25.5413 13.4599C24.7296 12.8525 23.9325 12.2248 23.1513 11.579C21.4214 10.1483 19.7096 8.69609 17.9807 7.26386C16.7964 6.28276 15.5997 5.31663 14.4009 4.35249C14.0183 4.04459 13.9933 4.04409 13.6123 4.35149C12.1494 5.53071 10.6901 6.71442 9.23882 7.90711C8.1921 8.76745 7.16188 9.64774 6.11966 10.5141C5.01342 11.4333 3.90068 12.344 2.79345 13.2617C1.87475 14.0233 1.01807 13.8386 0.383433 12.9504C0.108374 12.5651 -0.0786659 12.1704 0.0338581 11.6788C0.113875 11.329 0.353926 11.0964 0.601979 10.8809C1.61269 10.0041 2.63191 9.13673 3.65613 8.2759C3.81266 8.14415 3.88268 8.00043 3.88568 7.80631C3.90018 6.80175 3.91369 5.7972 3.93269 4.79264C3.94419 4.17883 3.95819 3.56502 3.9842 2.9517C4.01721 2.1787 4.34678 1.83137 5.12044 1.78895C5.47502 1.76949 5.8381 1.78396 6.18867 1.83886C6.62176 1.90673 6.93633 2.16024 7.04185 2.60587C7.09886 2.84691 7.14237 3.09393 7.15838 3.34045C7.19088 3.84547 7.19939 4.35249 7.22189 4.85851C7.22589 4.94684 7.2484 5.03467 7.2744 5.19786V5.19686Z" fill="#DEA83E"/>
<path d="M14.2139 25.0874C12.1159 25.0874 10.018 25.1013 7.92054 25.0814C6.92383 25.0719 5.92712 25.008 4.93141 24.9471C4.40229 24.9147 3.98971 24.4701 3.98471 23.9446C3.9632 21.7194 3.9477 19.4942 3.9392 17.2685C3.9382 16.9716 3.9822 16.6736 4.01621 16.3772C4.05722 16.0219 4.27177 15.7889 4.58583 15.6461C5.24847 15.3437 5.91512 15.3532 6.55925 15.6876C6.89383 15.8612 7.09437 16.1507 7.10737 16.5474C7.12137 16.9786 7.15588 17.4097 7.16038 17.8409C7.17188 18.9787 7.16888 20.117 7.17739 21.2548C7.18039 21.6839 7.18789 21.6844 7.60498 21.6844C11.8754 21.6844 16.1458 21.6844 20.4167 21.6844C20.8228 21.6844 20.8243 21.6839 20.8248 21.2752C20.8263 20.0212 20.8218 18.7666 20.8313 17.5125C20.8338 17.1817 20.8813 16.8513 20.9033 16.5204C20.9358 16.0344 21.2169 15.7429 21.656 15.5997C22.2496 15.4056 22.8492 15.3532 23.4243 15.6666C23.8344 15.8897 24.0665 16.2165 24.0245 16.7141C24.003 16.9681 24.054 17.2271 24.0545 17.4841C24.0575 19.1788 24.0625 20.873 24.0525 22.5677C24.0495 23.0897 24.0175 23.6127 23.9685 24.1327C23.927 24.5699 23.7044 24.8084 23.2653 24.8848C22.8322 24.9606 22.3921 25.0335 21.9545 25.036C19.375 25.0499 16.7949 25.0429 14.2149 25.0429C14.2149 25.0579 14.2149 25.0734 14.2149 25.0884L14.2139 25.0874Z" fill="#DEA83E"/>
</svg>
