<svg width="21" height="20" viewBox="0 0 21 20" fill="none" xmlns="http://www.w3.org/2000/svg">
<g clip-path="url(#clip0_4_197)">
<path d="M7.74375 0C8.31272 0 8.88103 0 9.45 0C9.66197 0.0410095 9.87262 0.0870662 10.0859 0.121136C15.0629 0.92429 18.2713 5.78612 16.882 10.4599C16.6628 11.1975 16.3045 11.8965 16.0059 12.6259C17.5422 14.1098 19.1152 15.629 20.6896 17.1476C20.7874 17.2416 20.8963 17.3249 21 17.4132V17.918C20.4297 18.7842 19.742 19.5338 18.7687 20H18.3094C18.3022 19.9817 18.3002 19.9577 18.2864 19.9451C16.6858 18.4095 15.0819 16.877 13.4879 15.3344C13.3291 15.1811 13.2313 15.224 13.0745 15.3142C11.3485 16.3066 9.48347 16.6877 7.4865 16.4555C4.06547 16.058 1.10972 13.5539 0.270375 10.3388C0.162094 9.92555 0.08925 9.50347 0 9.08517C0 8.53817 0 7.9918 0 7.44479C0.021 7.37539 0.049875 7.30725 0.0610312 7.23659C0.626062 3.76972 2.65387 1.48265 6.09525 0.355205C6.62484 0.181703 7.19316 0.116088 7.74375 0ZM2.86519 8.25867C2.86912 11.3079 5.42456 13.7584 8.5995 13.7577C11.7744 13.7577 14.3227 11.3047 14.3213 8.2511C14.32 5.1918 11.7797 2.7571 8.59162 2.75962C5.40619 2.76215 2.86125 5.20631 2.86519 8.25867Z" fill="#DEA83E"/>
</g>
<defs>
<clipPath id="clip0_4_197">
<rect width="21" height="20" fill="white"/>
</clipPath>
</defs>
</svg>
